<?xml version="1.0" encoding="utf-8"?>
<!-- Generator: Adobe Illustrator 23.0.0, SVG Export Plug-In . SVG Version: 6.00 Build 0)  -->
<svg version="1.1" id="Calque_1" xmlns="http://www.w3.org/2000/svg" xmlns:xlink="http://www.w3.org/1999/xlink" x="0px" y="0px"
	 viewBox="0 0 595.28 586.59" style="enable-background:new 0 0 595.28 586.59;" xml:space="preserve">
<style type="text/css">
	.st0{clip-path:url(#SVGID_2_);fill:#FAB51F;}
</style>
<g>
	<defs>
		<rect id="SVGID_1_" x="18.85" y="18.29" width="556.45" height="555.24"/>
	</defs>
	<clipPath id="SVGID_2_">
		<use xlink:href="#SVGID_1_"  style="overflow:visible;"/>
	</clipPath>
	<path class="st0" d="M396.81,18.29c10.92,4.53,21.57,9.72,31.88,15.52c10.31,5.8,20.28,12.21,29.77,19.29
		c19,14.11,36.37,30.46,51.36,48.8c30.23,36.5,51,80.72,60.17,127.27c4.44,23.3,6.17,47.14,4.9,70.84
		c-1.33,23.7-5.48,47.24-12.4,69.97c-7.15,22.65-16.91,44.49-29.27,64.79l-4.79,7.51c-0.81,1.24-1.57,2.52-2.42,3.74l-2.57,3.64
		l-5.15,7.27l-5.49,7.02l-2.75,3.51c-0.94,1.15-1.93,2.26-2.9,3.39l-5.82,6.75c-1.98,2.21-4.07,4.33-6.11,6.5
		c-2.05,2.15-4.05,4.35-6.24,6.36c-17,16.6-35.86,31.4-56.46,43.34l-7.72,4.47l-7.93,4.1l-3.97,2.05c-1.32,0.68-2.7,1.25-4.05,1.88
		l-8.12,3.7c-2.71,1.23-5.51,2.24-8.27,3.36l-4.15,1.65l-2.08,0.82l-2.11,0.72c-5.64,1.9-11.23,3.97-16.99,5.49
		c-2.87,0.81-5.72,1.67-8.6,2.42l-8.7,2.02l-4.35,1.01c-1.46,0.3-2.93,0.54-4.39,0.81l-8.79,1.59c-1.46,0.3-2.94,0.44-4.42,0.64
		l-4.43,0.57l-4.43,0.57c-1.48,0.2-2.95,0.39-4.44,0.48l-8.91,0.69c-1.49,0.1-2.97,0.26-4.45,0.32l-4.47,0.11l-8.93,0.21
		c-2.98,0.03-5.95-0.1-8.93-0.14c-2.98-0.02-5.95-0.21-8.92-0.39c-2.97-0.19-5.95-0.3-8.91-0.65c-11.87-0.98-23.66-2.88-35.3-5.37
		c-23.3-4.99-45.85-13.18-67.17-23.71c-10.62-5.36-20.91-11.36-30.81-17.94c-2.45-1.69-4.96-3.27-7.35-5.04l-7.19-5.26l-6.98-5.54
		c-2.34-1.83-4.54-3.83-6.81-5.74c-8.97-7.79-17.47-16.11-25.45-24.89c-7.93-8.83-15.32-18.14-22.13-27.85l-2.52-3.66l-1.26-1.83
		l-1.2-1.87l-4.76-7.51l-4.49-7.67c-1.49-2.56-2.83-5.21-4.25-7.8c-5.51-10.48-10.37-21.29-14.56-32.36l0.42-0.16
		c9.02,21.81,20.31,42.7,34.29,61.67c6.92,9.52,14.38,18.65,22.37,27.28c8.04,8.59,16.58,16.69,25.57,24.26
		c2.28,1.85,4.48,3.8,6.82,5.58l6.98,5.37l7.16,5.13c2.37,1.73,4.87,3.27,7.3,4.92c9.84,6.41,20.04,12.24,30.57,17.44
		c21.12,10.21,43.41,18.07,66.39,22.79c11.46,2.42,23.06,4.27,34.75,5.2c2.91,0.33,5.84,0.43,8.77,0.61
		c2.93,0.17,5.85,0.36,8.78,0.37c2.93,0.03,5.86,0.15,8.79,0.11l8.79-0.23l4.39-0.12c1.46-0.07,2.92-0.21,4.38-0.31l8.77-0.65
		c1.46-0.08,2.92-0.27,4.37-0.46l4.36-0.55l4.36-0.55c1.45-0.19,2.91-0.33,4.35-0.62l8.66-1.53c1.44-0.26,2.89-0.49,4.33-0.78
		l4.28-0.98l8.57-1.96c2.84-0.73,5.65-1.57,8.47-2.36c5.68-1.46,11.19-3.47,16.76-5.31l2.08-0.7l2.05-0.8l4.1-1.6
		c2.72-1.1,5.49-2.07,8.17-3.26l8.03-3.6c1.33-0.61,2.69-1.17,4-1.83l3.92-1.99l7.84-3.99l7.64-4.36
		c20.38-11.65,39.08-26.14,55.97-42.43c2.17-1.98,4.16-4.14,6.19-6.26c2.02-2.13,4.09-4.21,6.06-6.39l5.78-6.64
		c0.96-1.11,1.94-2.2,2.88-3.33l2.73-3.46l5.46-6.91l5.13-7.16l2.56-3.58c0.85-1.2,1.6-2.46,2.41-3.69l4.77-7.41
		c12.31-20.02,22.08-41.57,29.26-63.95c6.96-22.46,11.18-45.75,12.61-69.23c1.37-23.49-0.23-47.13-4.53-70.27
		c-8.8-46.24-29.14-90.32-59-126.84c-14.8-18.35-32.01-34.75-50.85-48.93c-9.41-7.12-19.31-13.58-29.56-19.43
		c-10.25-5.86-20.84-11.1-31.72-15.69L396.81,18.29z"/>
</g>
</svg>
