<?xml version="1.0" encoding="utf-8"?>
<!-- Generator: Adobe Illustrator 23.0.0, SVG Export Plug-In . SVG Version: 6.00 Build 0)  -->
<svg version="1.1" id="Calque_1" xmlns="http://www.w3.org/2000/svg" xmlns:xlink="http://www.w3.org/1999/xlink" x="0px" y="0px"
	 viewBox="0 0 1131 791" style="enable-background:new 0 0 1131 791;" xml:space="preserve">
<style type="text/css">
	.st0{clip-path:url(#SVGID_2_);fill:#5C5C5B;}
	.st1{clip-path:url(#SVGID_2_);fill:#FAB529;}
</style>
<g>
	<defs>
		<rect id="SVGID_1_" y="40.26" width="1092.3" height="750.74"/>
	</defs>
	<clipPath id="SVGID_2_">
		<use xlink:href="#SVGID_1_"  style="overflow:visible;"/>
	</clipPath>
	<path class="st0" d="M118.08,203.87c1.83,6.1-1.63,12.53-7.73,14.36c-6.1,1.83-12.53-1.63-14.36-7.73
		c-1.83-6.1,1.63-12.53,7.73-14.36C109.82,194.31,116.25,197.77,118.08,203.87"/>
	<path class="st0" d="M107.05,196.65c-1.02,0-2.04,0.15-3.05,0.45c-2.69,0.81-4.91,2.62-6.24,5.1c-1.33,2.48-1.62,5.33-0.81,8.02
		c0.81,2.7,2.62,4.91,5.1,6.25c2.48,1.33,5.33,1.62,8.02,0.81c2.69-0.81,4.91-2.62,6.25-5.1c1.33-2.48,1.62-5.33,0.81-8.02
		c-0.81-2.7-2.62-4.91-5.1-6.25C110.47,197.08,108.77,196.65,107.05,196.65 M107.02,219.73c-2.04,0-4.07-0.51-5.92-1.5
		c-2.95-1.59-5.1-4.22-6.06-7.43c-1.99-6.62,1.78-13.62,8.39-15.61c3.21-0.96,6.6-0.62,9.54,0.97c2.95,1.59,5.1,4.22,6.07,7.43
		c0.96,3.21,0.62,6.6-0.96,9.54c-1.59,2.95-4.23,5.1-7.43,6.07C109.45,219.55,108.23,219.73,107.02,219.73"/>
	<path class="st0" d="M206.8,238.9c-0.49,0-0.99,0.07-1.48,0.22c-2.71,0.82-4.26,3.69-3.44,6.4c0.82,2.72,3.69,4.26,6.4,3.44
		c2.71-0.82,4.26-3.69,3.44-6.4C211.06,240.34,209.01,238.9,206.8,238.9 M206.81,251.18c-3.07,0-5.92-2-6.84-5.09
		c-1.13-3.77,1.01-7.76,4.78-8.9c3.78-1.13,7.76,1.01,8.9,4.78c1.13,3.77-1.01,7.76-4.78,8.9
		C208.18,251.09,207.49,251.18,206.81,251.18"/>
	<path class="st0" d="M75.67,236.17c-2.13,0.64-4.39,0.41-6.35-0.64c-1.96-1.06-3.4-2.82-4.04-4.95c-1.32-4.41,1.18-9.08,5.59-10.41
		c0.79-0.24,1.6-0.36,2.41-0.36c1.36,0,2.71,0.34,3.94,1c1.96,1.06,3.4,2.82,4.04,4.95C82.58,230.17,80.07,234.84,75.67,236.17
		 M137.65,190.14c-0.9-3.01,0.81-6.2,3.81-7.1c0.54-0.16,1.09-0.24,1.64-0.24c0.93,0,1.85,0.23,2.69,0.68
		c1.34,0.72,2.32,1.92,2.76,3.38c0.9,3.01-0.81,6.2-3.81,7.1c-1.45,0.44-2.99,0.28-4.33-0.44
		C139.07,192.8,138.09,191.6,137.65,190.14 M160.88,235.5c-1.11-3.69,0.99-7.59,4.67-8.7c0.66-0.2,1.34-0.3,2.02-0.3
		c1.13,0,2.26,0.28,3.29,0.83c1.64,0.88,2.84,2.35,3.38,4.14v0c1.11,3.69-0.99,7.59-4.67,8.7c-1.78,0.54-3.66,0.35-5.3-0.54
		C162.61,238.76,161.41,237.29,160.88,235.5 M250.01,254.41c0.59-0.18,1.18-0.26,1.78-0.26c1,0,2,0.25,2.91,0.74
		c1.45,0.78,2.51,2.08,2.98,3.66c0.98,3.26-0.87,6.7-4.12,7.68c-1.57,0.47-3.24,0.3-4.69-0.47c-1.45-0.78-2.51-2.08-2.98-3.66
		C244.91,258.83,246.76,255.39,250.01,254.41 M269.65,254.73c-1.34-4.46,1.2-9.19,5.65-10.53c0.8-0.24,1.62-0.36,2.44-0.36
		c1.38,0,2.74,0.34,3.98,1.01c1.99,1.07,3.44,2.85,4.08,5.01c1.34,4.47-1.2,9.19-5.65,10.53c-2.16,0.65-4.44,0.42-6.42-0.65
		C271.75,258.67,270.3,256.89,269.65,254.73 M249.22,436.33c1.03-1.7,2.84-2.64,4.7-2.64c0.97,0,1.94,0.25,2.83,0.79
		c1.25,0.76,2.14,1.95,2.49,3.37c0.35,1.42,0.12,2.89-0.63,4.13v0c-1.56,2.58-4.94,3.41-7.53,1.85c-1.25-0.76-2.13-1.95-2.49-3.37
		C248.24,439.05,248.46,437.58,249.22,436.33 M287.47,449.09c1.82-3,5.01-4.66,8.29-4.66c1.7,0,3.43,0.45,4.99,1.39
		c2.21,1.33,3.77,3.45,4.38,5.95c0.62,2.5,0.22,5.09-1.11,7.3c-2.76,4.56-8.71,6.02-13.28,3.26c-2.21-1.33-3.77-3.45-4.38-5.95
		C285.74,453.88,286.13,451.29,287.47,449.09 M336.27,562.43c1.42-2.35,3.93-3.65,6.49-3.65c1.33,0,2.69,0.35,3.91,1.09
		c1.73,1.05,2.95,2.7,3.43,4.66c0.48,1.96,0.17,3.99-0.87,5.71c-2.16,3.57-6.83,4.72-10.4,2.56c-1.73-1.04-2.95-2.7-3.43-4.66
		C334.92,566.18,335.23,564.15,336.27,562.43 M370.57,592.03c-6.84-4.14-15.77-1.94-19.91,4.9c-1.11,1.84-1.77,3.86-2,5.94
		c-31.91-3.26-54.09-12.72-81.78-34.89c-7.57-6.06-13.99-12.23-19.38-18.63c14.44,8.34,43.85,23.34,68.54,23.34
		c5.94,0,11.6-0.88,16.71-2.92c0.8,2.34,2.38,4.31,4.53,5.61c1.71,1.03,3.59,1.52,5.45,1.52c3.58,0,7.08-1.81,9.07-5.09
		c1.46-2.41,1.89-5.25,1.22-7.99c-0.67-2.74-2.38-5.05-4.8-6.51c-4.99-3.01-11.5-1.41-14.52,3.57c-1.09,1.8-1.6,3.83-1.52,5.88
		c-25.6,10.74-67.99-11.21-84.73-20.95c2.02,0.1,4,0.15,5.94,0.15c24.83,0,42.48-8.04,53.41-15.36
		c12.21-8.18,18.47-16.87,19.92-19.02c1.02,0.35,2.07,0.55,3.12,0.55c3.27,0,6.46-1.66,8.27-4.65c2.75-4.55,1.29-10.49-3.26-13.24
		c-2.2-1.33-4.79-1.73-7.3-1.11c-2.5,0.62-4.61,2.17-5.95,4.37c-1.33,2.2-1.73,4.8-1.11,7.3c0.54,2.17,1.78,4.05,3.55,5.38
		c-3.53,5.03-27.59,36.15-78.96,32.48c12.27-17.72,31.4-34.67,50.58-44.71c0.39,0.39,0.84,0.74,1.34,1.03
		c0.98,0.56,2.07,0.85,3.17,0.85c0.56,0,1.12-0.07,1.68-0.22c1.65-0.45,3.02-1.51,3.87-2.99c0.85-1.48,1.07-3.2,0.62-4.85
		c-0.92-3.4-4.43-5.42-7.83-4.49c-1.65,0.45-3.02,1.51-3.87,2.99c-0.85,1.48-1.07,3.2-0.63,4.85c0.03,0.09,0.06,0.18,0.09,0.27
		c-19.34,10.16-37.95,26.47-50.58,44.25c1.15-4.76,3.42-9.22,5.82-13.89c1.13-2.19,2.3-4.46,3.33-6.75c1.51-3.37,2.9-6.57,4.24-9.65
		c7.95-18.32,13.71-31.59,30.65-45.6c0.51,0.43,1.04,0.83,1.62,1.18c2.04,1.23,4.3,1.82,6.53,1.82c4.29,0,8.48-2.17,10.86-6.1
		c1.75-2.89,2.27-6.29,1.46-9.57c-0.81-3.28-2.85-6.05-5.75-7.8c-5.98-3.61-13.78-1.69-17.39,4.28c-1.75,2.89-2.27,6.29-1.46,9.57
		c0.4,1.63,1.11,3.13,2.07,4.44c-17.38,14.42-23.25,27.94-31.34,46.59c-1.34,3.08-2.72,6.27-4.23,9.62c-1,2.22-2.15,4.45-3.26,6.61
		c-2.25,4.37-4.55,8.86-5.85,13.67c-3.12-12.4-10.27-51.31,9.42-91.25c1.17,0.56,2.41,0.85,3.65,0.85c2.87,0,5.68-1.46,7.27-4.08
		c1.17-1.93,1.52-4.21,0.98-6.4c-0.54-2.2-1.91-4.05-3.85-5.23c-4-2.42-9.22-1.13-11.64,2.86c-1.17,1.94-1.52,4.21-0.98,6.41
		c0.36,1.46,1.09,2.76,2.1,3.82c-18.33,36.81-14.25,72.91-10.9,89.14c-12.54-22.21-15.6-49.06-18.31-72.81
		c-1.66-14.58-2.02-30.54,7.31-39.68c1.86,1.09,3.89,1.62,5.91,1.62c3.97,0,7.85-2.02,10.05-5.65c3.35-5.53,1.57-12.76-3.97-16.1
		c-2.68-1.62-5.83-2.1-8.87-1.35c-3.04,0.75-5.61,2.64-7.23,5.32c-1.62,2.68-2.1,5.83-1.35,8.87c0.51,2.09,1.58,3.95,3.06,5.44
		c-9.95,10.05-9.63,26.7-7.9,41.88c2.79,24.53,5.96,52.33,19.47,75.34c1.16,1.98,2.41,3.93,3.74,5.86
		c-12.66,10.45-25.77,20.99-38.45,31.18c-60.17,48.38-121.95,98.07-166.96,161.72c23.04-40.94,45.85-83.25,64.68-128.06l6.83-12
		l0.12-0.27c1.09-3.29,2.51-6.5,3.89-9.61c1.39-3.15,2.84-6.4,3.97-9.8c32.55-69.06,69.12-160.92,63.57-259.77
		c2.73,0.27,5.44,0.42,8.11,0.42c12.07,0,23.63-2.73,35.04-8.26c17.54-8.5,34.84-23.55,52.84-45.98c1.65,0.86,3.45,1.31,5.27,1.31
		c1.1,0,2.22-0.16,3.31-0.49c6.04-1.82,9.48-8.22,7.66-14.26l0,0c-0.88-2.93-2.85-5.34-5.54-6.79c-2.69-1.45-5.79-1.76-8.71-0.88
		c-6.04,1.82-9.48,8.22-7.66,14.26c0.6,2,1.71,3.74,3.21,5.12c-22.88,28.48-44.37,44.94-66.85,50.65
		c13.51-7.14,40.96-23.76,44.94-42.68c1.18,0.53,2.43,0.81,3.7,0.81c0.89,0,1.78-0.13,2.65-0.39c4.83-1.46,7.59-6.58,6.13-11.42
		c-0.7-2.35-2.28-4.28-4.43-5.44c-2.15-1.16-4.63-1.41-6.97-0.71c-4.83,1.46-7.59,6.58-6.13,11.42c0.47,1.55,1.32,2.91,2.46,4
		c-0.1,0.16-0.18,0.34-0.21,0.54c-4.25,23.46-50.32,44.63-50.79,44.84c-0.36,0.17-0.63,0.46-0.77,0.8
		c-4.62,0.56-9.3,0.68-14.05,0.39c2.14-1.48,4.28-2.98,6.37-4.53c32.84-24.36,50.26-49.62,58.24-84.45l-2.92-0.67
		c-7.81,34.07-24.89,58.81-57.1,82.71c-0.24,0.18-0.47,0.35-0.71,0.52c13.26-16.2,22.02-36.4,24.51-57.08l-2.98-0.36
		c-2.8,23.18-13.68,45.74-30.03,62.44c-2.66-2.79-8.93-10-13.4-19.94c-7.61-16.94-6.68-33.49,2.77-49.18
		c1.94,0.65,4.02,0.69,6.02,0.09c5.27-1.58,8.26-7.16,6.68-12.43c-0.77-2.56-2.48-4.66-4.83-5.92c-2.35-1.26-5.04-1.53-7.59-0.77
		c-5.26,1.59-8.26,7.16-6.68,12.43c0.64,2.14,1.94,3.96,3.72,5.23c-14.5,24.26-6.67,46.42,1.65,60.03
		c-5.86-6.85-11.21-14.13-14.9-22.36c-3.15-7.05-5.27-15.08-6.84-26.05c-0.43-2.96-0.86-5.77-1.28-8.46
		c-2.71-17.48-4.67-30.13,2.13-47.59c0.2,0.01,0.4,0.04,0.6,0.04c0.84,0,1.69-0.12,2.51-0.37c4.59-1.38,7.2-6.24,5.82-10.84
		c-0.67-2.23-2.16-4.06-4.21-5.16c-2.04-1.1-4.4-1.34-6.62-0.67c-4.59,1.38-7.2,6.24-5.82,10.84c0.67,2.23,2.16,4.06,4.21,5.16
		c0.19,0.1,0.38,0.18,0.57,0.26c-6.93,18.02-4.94,30.96-2.17,48.78c0.42,2.68,0.85,5.48,1.28,8.43c1.62,11.25,3.8,19.54,7.08,26.85
		c5.43,12.13,14.2,22.1,23,31.62c-9.87-1.91-19.02-5.43-27.4-9.94c0.18-0.59-0.01-1.25-0.54-1.64c-0.36-0.27-36.08-27.33-32.9-82.59
		c0.05-0.83-0.58-1.54-1.41-1.58c-0.82-0.06-1.54,0.58-1.58,1.41c-2.4,41.72,16.87,67.92,27.46,79.03
		c-32.35-21.41-51.1-55.92-52.83-59.19c4.04-2.7,6.04-7.82,4.57-12.71c-0.87-2.9-2.82-5.3-5.49-6.73c-2.67-1.44-5.74-1.75-8.64-0.88
		c-5.99,1.8-9.4,8.15-7.6,14.14c0.87,2.91,2.82,5.3,5.49,6.73c1.68,0.9,3.51,1.36,5.36,1.36c1.1,0,2.2-0.16,3.28-0.49
		c0.11-0.03,0.22-0.08,0.33-0.12c1.01,1.93,9.59,17.96,24.6,34.77c14.74,16.51,38.9,37.2,70.23,41.99c0.59,0.09,1.17,0.16,1.75,0.23
		c5.67,98.41-30.84,190.05-63.31,258.92l-0.07,0.17c-1.09,3.29-2.52,6.51-3.89,9.61c-1.39,3.13-2.82,6.36-3.95,9.74l-6.8,11.95
		l-0.08,0.16c-23.14,55.07-52.35,106.44-80.59,156.12c-4.86,8.55-9.72,17.1-14.55,25.65c-0.41,0.72-0.15,1.64,0.57,2.04
		c0.23,0.13,0.49,0.19,0.74,0.19c0.15,0,0.3-0.03,0.45-0.08c0.14,0.18,0.32,0.34,0.54,0.45c0.21,0.1,0.43,0.15,0.66,0.15
		c0.55,0,1.09-0.31,1.35-0.84c43.83-90.03,122.07-152.94,197.74-213.77c12.63-10.15,25.69-20.65,38.31-31.06
		c6.36,8.72,14.43,16.96,24.47,25c28.24,22.61,50.87,32.25,83.51,35.55l0.07-0.67c0.05,0.9,0.18,1.81,0.4,2.7
		c0.93,3.76,3.26,6.93,6.58,8.94c2.34,1.42,4.92,2.09,7.48,2.09c4.91,0,9.71-2.49,12.43-6.99
		C379.61,605.1,377.41,596.17,370.57,592.03"/>
	<path class="st0" d="M713.62,43.26c-10.26,0-18.62,8.35-18.62,18.62c0,10.27,8.35,18.62,18.62,18.62
		c10.26,0,18.62-8.35,18.62-18.62C732.24,51.61,723.88,43.26,713.62,43.26 M713.62,83.49c-11.92,0-21.62-9.7-21.62-21.62
		c0-11.92,9.7-21.62,21.62-21.62c11.92,0,21.62,9.7,21.62,21.62C735.24,73.79,725.54,83.49,713.62,83.49 M981.06,111.19
		c-7.17,0-13.01,5.84-13.01,13.01c0,7.17,5.84,13.01,13.01,13.01s13.01-5.84,13.01-13.01C994.07,117.03,988.23,111.19,981.06,111.19
		 M981.06,140.22c-8.83,0-16.01-7.18-16.01-16.01c0-8.83,7.18-16.01,16.01-16.01c8.83,0,16.01,7.18,16.01,16.01
		C997.07,133.03,989.89,140.22,981.06,140.22 M501.25,197.6c-10.26,0-18.62,8.35-18.62,18.62s8.35,18.62,18.62,18.62
		c10.26,0,18.61-8.35,18.61-18.62S511.52,197.6,501.25,197.6 M501.25,237.84c-11.92,0-21.62-9.7-21.62-21.62
		c0-11.92,9.7-21.62,21.62-21.62c11.92,0,21.61,9.7,21.61,21.62C522.87,228.14,513.17,237.84,501.25,237.84 M768.69,265.54
		c-7.17,0-13.01,5.84-13.01,13.01c0,7.17,5.84,13.01,13.01,13.01c7.17,0,13.01-5.84,13.01-13.01
		C781.7,271.38,775.86,265.54,768.69,265.54 M768.69,294.56c-8.83,0-16.01-7.18-16.01-16.01c0-8.83,7.18-16.01,16.01-16.01
		c8.83,0,16.01,7.18,16.01,16.01C784.7,287.38,777.52,294.56,768.69,294.56 M686.25,301.16c-14.08,0-25.54,11.46-25.54,25.54
		c0,14.08,11.46,25.54,25.54,25.54c14.08,0,25.54-11.46,25.54-25.54C711.79,312.62,700.33,301.16,686.25,301.16 M686.25,355.24
		c-15.74,0-28.54-12.8-28.54-28.54c0-15.74,12.8-28.54,28.54-28.54c15.74,0,28.54,12.8,28.54,28.54
		C714.79,342.44,701.99,355.24,686.25,355.24 M473.88,455.5c-14.08,0-25.54,11.46-25.54,25.54c0,14.08,11.46,25.54,25.54,25.54
		c14.08,0,25.54-11.46,25.54-25.54C499.42,466.96,487.96,455.5,473.88,455.5 M473.88,509.59c-15.74,0-28.54-12.8-28.54-28.54
		c0-15.74,12.8-28.54,28.54-28.54c15.74,0,28.54,12.81,28.54,28.54C502.42,496.78,489.62,509.59,473.88,509.59"/>
	<path class="st1" d="M572.4,187.59c0,8.1-6.56,14.66-14.66,14.66s-14.66-6.56-14.66-14.66c0-8.1,6.56-14.66,14.66-14.66
		S572.4,179.49,572.4,187.59"/>
	<path class="st1" d="M741.14,188.24c0,15.01-12.17,27.18-27.18,27.18c-15.01,0-27.18-12.17-27.18-27.18
		c0-15.01,12.17-27.18,27.18-27.18C728.97,161.06,741.14,173.23,741.14,188.24"/>
	<path class="st1" d="M891.42,246.91c0,7.37-5.97,13.34-13.34,13.34c-7.37,0-13.34-5.97-13.34-13.34c0-7.37,5.97-13.34,13.34-13.34
		C885.45,233.57,891.42,239.54,891.42,246.91"/>
	<path class="st1" d="M850.47,97.86c0,8.1-6.56,14.66-14.66,14.66c-8.1,0-14.66-6.56-14.66-14.66c0-8.1,6.56-14.66,14.66-14.66
		C843.91,83.2,850.47,89.77,850.47,97.86"/>
	<path class="st1" d="M1081.76,42.91c-5.27,0-9.55,4.28-9.55,9.55c0,5.26,4.28,9.55,9.55,9.55c5.26,0,9.55-4.28,9.55-9.55
		C1091.3,47.2,1087.02,42.91,1081.76,42.91 M1081.76,63.01c-5.82,0-10.55-4.73-10.55-10.55c0-5.82,4.73-10.55,10.55-10.55
		c5.81,0,10.55,4.73,10.55,10.55C1092.3,58.28,1087.57,63.01,1081.76,63.01"/>
	<path class="st0" d="M256.65,213.45c1.61,5.36-1.43,11.01-6.79,12.62c-5.36,1.61-11.01-1.43-12.62-6.79
		c-1.61-5.36,1.43-11.01,6.79-12.62C249.39,205.05,255.04,208.09,256.65,213.45"/>
	<path class="st0" d="M246.96,207.23c-0.88,0-1.77,0.13-2.64,0.39c-4.82,1.45-7.57,6.55-6.12,11.37c0.7,2.34,2.27,4.26,4.42,5.41
		c2.15,1.16,4.62,1.41,6.95,0.7c2.34-0.7,4.26-2.27,5.41-4.42c1.15-2.15,1.4-4.62,0.7-6.95c-0.7-2.34-2.27-4.26-4.42-5.41
		C249.92,207.6,248.45,207.23,246.96,207.23 M246.93,227.5c-1.82,0-3.61-0.45-5.26-1.33c-2.62-1.41-4.53-3.75-5.39-6.6
		c-1.76-5.88,1.58-12.1,7.46-13.86c2.85-0.85,5.86-0.55,8.48,0.86s4.53,3.75,5.39,6.6c0.86,2.85,0.55,5.86-0.86,8.47
		c-1.41,2.62-3.75,4.53-6.6,5.39C249.09,227.34,248.01,227.5,246.93,227.5"/>
	<path class="st1" d="M238.18,410.31c1.39,4.64-1.24,9.52-5.87,10.92c-4.64,1.39-9.52-1.24-10.92-5.87
		c-1.39-4.63,1.24-9.52,5.87-10.92S236.79,405.68,238.18,410.31"/>
	<path class="st1" d="M229.79,404.93c-0.76,0-1.53,0.11-2.28,0.34c-4.17,1.25-6.55,5.67-5.29,9.84c0.61,2.02,1.97,3.69,3.82,4.68
		c1.86,1,4,1.21,6.02,0.61c2.02-0.61,3.69-1.96,4.68-3.82s1.21-3.99,0.61-6.02s-1.96-3.68-3.82-4.68
		C232.36,405.25,231.08,404.93,229.79,404.93 M229.77,422.47c-1.57,0-3.13-0.39-4.55-1.15c-2.27-1.22-3.92-3.25-4.66-5.71
		c-1.53-5.09,1.37-10.47,6.45-11.99c2.46-0.74,5.07-0.48,7.33,0.74c2.27,1.22,3.92,3.25,4.66,5.71c0.74,2.46,0.48,5.07-0.74,7.33
		c-1.22,2.27-3.25,3.92-5.71,4.66C231.64,422.33,230.7,422.47,229.77,422.47"/>
	<path class="st1" d="M115.43,207.57c1.39,4.64-1.24,9.52-5.87,10.92c-4.64,1.39-9.52-1.23-10.92-5.87
		c-1.39-4.63,1.24-9.52,5.87-10.92C109.15,200.31,114.04,202.94,115.43,207.57"/>
	<path class="st1" d="M107.05,202.19c-0.76,0-1.53,0.11-2.28,0.34c-4.17,1.25-6.55,5.67-5.29,9.84c0.61,2.02,1.97,3.69,3.82,4.68
		c1.86,1,4,1.22,6.02,0.61c2.02-0.61,3.69-1.97,4.68-3.82c1-1.86,1.22-3.99,0.61-6.02c-0.61-2.02-1.96-3.68-3.82-4.68
		C109.61,202.51,108.33,202.19,107.05,202.19 M107.02,219.73c-1.57,0-3.13-0.39-4.55-1.15c-2.27-1.22-3.92-3.25-4.66-5.71
		c-1.53-5.09,1.37-10.47,6.45-11.99c2.46-0.74,5.07-0.48,7.33,0.74c2.27,1.22,3.92,3.25,4.66,5.71c0.74,2.46,0.48,5.07-0.74,7.33
		c-1.22,2.27-3.25,3.92-5.71,4.66C108.89,219.59,107.95,219.73,107.02,219.73"/>
	<path class="st1" d="M253.83,215.45c1.39,4.64-1.24,9.52-5.87,10.92c-4.64,1.39-9.52-1.23-10.92-5.87
		c-1.39-4.63,1.24-9.52,5.87-10.92S252.44,210.81,253.83,215.45"/>
	<path class="st1" d="M334.03,502.89c1.04,3.48-0.93,7.15-4.41,8.19c-3.48,1.05-7.14-0.93-8.19-4.4c-1.04-3.48,0.93-7.14,4.41-8.19
		C329.32,497.44,332.98,499.41,334.03,502.89"/>
	<path class="st1" d="M370.56,599.42c1.61,5.36-1.43,11.01-6.79,12.62c-5.36,1.61-11.01-1.43-12.62-6.79
		c-1.61-5.36,1.43-11.01,6.79-12.62C363.3,591.03,368.95,594.06,370.56,599.42"/>
	<path class="st1" d="M360.87,593.2c-0.88,0-1.77,0.13-2.64,0.39c-4.82,1.45-7.57,6.55-6.12,11.37c0.7,2.34,2.27,4.26,4.42,5.41
		c2.15,1.16,4.62,1.41,6.95,0.7c2.34-0.7,4.26-2.27,5.41-4.42c1.15-2.15,1.4-4.62,0.7-6.95c-0.7-2.34-2.27-4.26-4.42-5.41
		C363.83,593.57,362.36,593.2,360.87,593.2 M360.84,613.47c-1.82,0-3.61-0.45-5.26-1.33c-2.62-1.41-4.53-3.75-5.39-6.6
		c-1.77-5.88,1.58-12.1,7.46-13.86c2.85-0.85,5.86-0.55,8.48,0.86c2.62,1.41,4.53,3.75,5.39,6.6c0.86,2.85,0.55,5.86-0.86,8.48
		c-1.41,2.62-3.75,4.53-6.6,5.39C363,613.31,361.92,613.47,360.84,613.47"/>
</g>
</svg>
