<?xml version="1.0" encoding="utf-8"?>
<!-- Generator: Adobe Illustrator 23.0.0, SVG Export Plug-In . SVG Version: 6.00 Build 0)  -->
<svg version="1.1" id="Calque_1" xmlns="http://www.w3.org/2000/svg" xmlns:xlink="http://www.w3.org/1999/xlink" x="0px" y="0px"
	 viewBox="0 0 17.01 13.59" style="enable-background:new 0 0 17.01 13.59;" xml:space="preserve">
<style type="text/css">
	.st0{clip-path:url(#SVGID_2_);fill:#575756;}
	.st1{clip-path:url(#SVGID_2_);fill:#8FA8C5;}
	.st2{clip-path:url(#SVGID_2_);fill:#92C571;}
	.st3{clip-path:url(#SVGID_2_);fill:#FAB51F;}
</style>
<g>
	<defs>
		<rect id="SVGID_1_" width="16.07" height="14.18"/>
	</defs>
	<clipPath id="SVGID_2_">
		<use xlink:href="#SVGID_1_"  style="overflow:visible;"/>
	</clipPath>
	<path class="st0" d="M10.25,9.72c-0.08,0.12-0.25,0.16-0.38,0.09C9.8,9.78,9.76,9.73,9.75,9.67c-0.01-0.06,0-0.12,0.04-0.17
		c0.06-0.08,0.15-0.12,0.25-0.12c0.05,0,0.09,0.01,0.13,0.03c0.06,0.03,0.1,0.08,0.12,0.14C10.3,9.61,10.28,9.67,10.25,9.72
		 M10.33,9.54c-0.02-0.08-0.07-0.14-0.15-0.18c-0.15-0.08-0.35-0.03-0.45,0.11C9.69,9.53,9.68,9.61,9.7,9.68
		c0.02,0.08,0.07,0.14,0.15,0.18C9.89,9.89,9.94,9.9,10,9.9c0.11,0,0.23-0.05,0.29-0.14C10.34,9.69,10.35,9.61,10.33,9.54"/>
	<path class="st0" d="M11.72,2.08c0.08,0.13,0.28,0.01,0.2-0.12C11.84,1.82,11.64,1.94,11.72,2.08"/>
	<path class="st0" d="M10.93,0.73c-0.06-0.1-0.21-0.01-0.15,0.09C10.83,0.93,10.99,0.83,10.93,0.73"/>
	<path class="st0" d="M10.63,2.88c0.05,0.09,0.18,0.01,0.13-0.08C10.71,2.72,10.58,2.8,10.63,2.88"/>
	<path class="st1" d="M9.01,3.37c0.14,0.25,0.52,0.02,0.37-0.23C9.24,2.89,8.86,3.12,9.01,3.37"/>
	<path class="st2" d="M12.6,0.65c0.24,0.43,0.88,0.04,0.64-0.39C13-0.16,12.36,0.23,12.6,0.65"/>
	<path class="st0" d="M14.7,0.78c0.12,0.21,0.43,0.02,0.31-0.19C14.89,0.38,14.58,0.57,14.7,0.78"/>
	<path class="st3" d="M12.2,3.17C12,3.66,12.73,3.99,12.94,3.5C13.14,3,12.41,2.67,12.2,3.17"/>
	<path class="st0" d="M12.24,4.87c-0.04,0.09,0.1,0.15,0.14,0.06C12.41,4.84,12.28,4.78,12.24,4.87"/>
	<path class="st0" d="M13.51,5.3c-0.06,0.14,0.15,0.24,0.21,0.1C13.79,5.25,13.57,5.16,13.51,5.3"/>
	<path class="st0" d="M10.9,3.8c-0.11,0.27,0.29,0.44,0.4,0.18C11.41,3.71,11.01,3.53,10.9,3.8"/>
	<path class="st0" d="M9.96,1.87C9.89,2,9.75,2.08,9.61,2.08h0c-0.13,0-0.23-0.07-0.3-0.19C9.17,1.68,9.28,1.47,9.44,1.38
		C9.5,1.34,9.58,1.32,9.65,1.32c0.11,0,0.22,0.05,0.3,0.19C10.02,1.62,10.02,1.75,9.96,1.87 M9.72,1.27c-0.1-0.02-0.21,0-0.31,0.06
		c-0.1,0.06-0.17,0.15-0.2,0.25C9.18,1.69,9.19,1.81,9.26,1.92c0.08,0.14,0.2,0.21,0.34,0.21h0c0.16,0,0.32-0.1,0.4-0.24
		c0.07-0.13,0.07-0.28-0.01-0.42C9.93,1.36,9.83,1.29,9.72,1.27"/>
	<path class="st0" d="M11.33,6.98c-0.06,0.14,0.15,0.24,0.21,0.1C11.6,6.93,11.39,6.83,11.33,6.98"/>
	<path class="st0" d="M3.54,11.48c0.22-0.24,0.47-0.5,0.73-0.81c0.01-0.01,0.01-0.02,0.02-0.03c1.77-1.74,2.25-1.88,2.96-2.09
		l0.01,0c0.01,0,0.03-0.01,0.03-0.03C7.42,8.69,7.6,8.84,7.82,8.99c0.63,0.43,1.13,0.61,1.87,0.65l0-0.05
		C8.96,9.54,8.46,9.37,7.84,8.94C7.67,8.83,7.53,8.71,7.41,8.58C7.72,8.73,8.36,9,8.92,9c0.15,0,0.3-0.02,0.43-0.07
		c0.02,0.05,0.05,0.08,0.1,0.11c0.03,0.02,0.07,0.02,0.11,0.02c0.08,0,0.16-0.04,0.2-0.1c0.03-0.05,0.04-0.1,0.03-0.15
		c-0.01-0.05-0.05-0.1-0.1-0.12c-0.1-0.05-0.24-0.02-0.31,0.07C9.35,8.8,9.34,8.84,9.34,8.88c-0.61,0.24-1.61-0.2-1.96-0.37
		c0.03,0,0.07,0,0.1,0c1.19,0,1.73-0.7,1.75-0.73C9.25,7.79,9.27,7.8,9.3,7.8c0.07,0,0.14-0.03,0.19-0.09
		c0.03-0.04,0.04-0.09,0.03-0.14C9.5,7.52,9.47,7.48,9.42,7.45C9.32,7.4,9.2,7.43,9.13,7.52C9.11,7.56,9.09,7.61,9.11,7.66
		c0.01,0.04,0.04,0.08,0.07,0.1C9.11,7.84,8.55,8.5,7.36,8.45c0.29-0.36,0.73-0.7,1.17-0.91c0,0,0,0,0,0
		c0.03,0.02,0.06,0.04,0.1,0.04c0.01,0,0.03,0,0.04-0.01C8.71,7.56,8.75,7.54,8.77,7.5c0.02-0.03,0.02-0.06,0.01-0.09
		c-0.02-0.07-0.1-0.11-0.17-0.09C8.57,7.34,8.53,7.36,8.51,7.4C8.5,7.43,8.49,7.46,8.5,7.49c0,0,0,0.01,0,0.01
		C8.05,7.71,7.62,8.05,7.32,8.42c0.03-0.1,0.08-0.2,0.14-0.3c0.03-0.04,0.05-0.09,0.08-0.13c0.04-0.07,0.07-0.13,0.1-0.19
		c0.19-0.37,0.32-0.63,0.72-0.92c0,0,0,0,0.01-0.01C8.38,6.88,8.4,6.89,8.41,6.89C8.45,6.91,8.5,6.92,8.54,6.92
		c0.1,0,0.19-0.04,0.25-0.12c0.04-0.06,0.05-0.12,0.04-0.19C8.82,6.55,8.77,6.5,8.71,6.46C8.58,6.4,8.41,6.44,8.32,6.55
		C8.29,6.61,8.27,6.68,8.29,6.74C8.29,6.77,8.31,6.8,8.33,6.83c-0.4,0.3-0.54,0.57-0.73,0.94C7.57,7.83,7.53,7.89,7.5,7.96
		C7.48,8,7.45,8.05,7.42,8.09c-0.06,0.1-0.12,0.2-0.15,0.3c-0.06-0.21-0.24-1,0.26-1.84c0,0,0,0,0,0c0.02,0.01,0.05,0.02,0.08,0.02
		c0.06,0,0.12-0.03,0.16-0.08v0C7.8,6.45,7.8,6.41,7.79,6.37c-0.01-0.04-0.04-0.08-0.08-0.1C7.63,6.23,7.52,6.26,7.47,6.33
		C7.45,6.37,7.44,6.41,7.45,6.45C7.45,6.48,7.47,6.5,7.49,6.52c0,0,0,0,0,0C7.03,7.3,7.14,8.05,7.21,8.34
		c0-0.01-0.01-0.01-0.01-0.02C6.91,7.88,6.85,7.34,6.8,6.87C6.77,6.58,6.77,6.26,6.99,6.07C7.03,6.09,7.07,6.1,7.11,6.1
		c0.09,0,0.18-0.04,0.23-0.12C7.38,5.93,7.4,5.87,7.38,5.81C7.37,5.75,7.33,5.7,7.26,5.67C7.14,5.6,6.98,5.64,6.91,5.75
		C6.87,5.81,6.86,5.87,6.87,5.93c0.01,0.05,0.04,0.09,0.07,0.12c-0.23,0.2-0.23,0.53-0.2,0.83C6.8,7.36,6.86,7.9,7.15,8.35
		C7.17,8.38,7.19,8.4,7.21,8.43c-0.68,0.2-1.15,0.34-2.66,1.78c0.77-1.14,0.94-2.89,0.53-5.34c0.74-0.05,1.4-0.49,2.04-1.37
		C7.15,3.51,7.17,3.51,7.2,3.51c0.04,0,0.07-0.01,0.11-0.02c0.07-0.03,0.12-0.08,0.15-0.15c0.02-0.05,0.02-0.11,0-0.16
		C7.4,3.08,7.26,3.03,7.13,3.09C7.06,3.12,7.01,3.17,6.99,3.23c-0.02,0.05-0.02,0.11,0,0.16c0.02,0.04,0.05,0.07,0.08,0.09
		C6.6,4.13,6.13,4.52,5.62,4.71c0.28-0.18,0.9-0.61,0.95-1C6.6,3.71,6.62,3.71,6.64,3.71c0.03,0,0.06-0.01,0.09-0.02
		c0.05-0.02,0.1-0.06,0.12-0.12c0.02-0.04,0.01-0.09,0-0.13C6.8,3.37,6.68,3.33,6.58,3.37c-0.05,0.02-0.1,0.06-0.12,0.12
		c-0.02,0.04-0.01,0.09,0,0.13C6.48,3.64,6.5,3.66,6.53,3.68c0,0,0,0.01-0.01,0.01C6.47,4.17,5.47,4.74,5.46,4.74
		c-0.01,0-0.01,0.01-0.01,0.02C5.34,4.79,5.23,4.81,5.12,4.82c0.05-0.04,0.09-0.07,0.14-0.11c0.68-0.58,1.03-1.12,1.15-1.81
		c0.02,0,0.03,0,0.05,0c0.04,0,0.07-0.01,0.11-0.02C6.63,2.85,6.68,2.8,6.7,2.73c0.02-0.05,0.02-0.1,0-0.15
		c-0.05-0.11-0.19-0.15-0.31-0.1C6.32,2.51,6.27,2.56,6.25,2.63c-0.02,0.05-0.02,0.1,0,0.15c0.02,0.05,0.06,0.08,0.11,0.1
		C6.24,3.56,5.9,4.1,5.22,4.66C5.21,4.68,5.19,4.69,5.17,4.7c0.28-0.36,0.45-0.79,0.47-1.21c0.01,0,0.02,0,0.03-0.01
		c0.04-0.02,0.07-0.05,0.09-0.09c0.01-0.03,0.01-0.07,0-0.1v0C5.73,3.23,5.64,3.2,5.56,3.24C5.52,3.25,5.49,3.29,5.48,3.32
		c-0.01,0.03-0.01,0.07,0,0.1C5.5,3.46,5.54,3.49,5.59,3.49C5.56,3.96,5.36,4.43,5.02,4.81C4.88,4.72,4.24,4.22,4.66,3.47
		c0.01,0,0.03,0,0.04,0c0.03,0,0.06-0.01,0.09-0.02C4.85,3.43,4.9,3.39,4.92,3.33c0.02-0.05,0.02-0.09,0-0.14
		C4.87,3.1,4.75,3.06,4.64,3.11C4.58,3.13,4.53,3.18,4.51,3.23c-0.02,0.05-0.02,0.09,0,0.14c0.02,0.04,0.05,0.07,0.09,0.09
		C4.27,4.07,4.63,4.53,4.85,4.74c-0.19-0.14-0.37-0.3-0.5-0.49c-0.08-0.13-0.14-0.28-0.2-0.49C4.14,3.71,4.13,3.65,4.11,3.6
		C4.02,3.26,3.96,3.02,4.08,2.65c0,0,0,0,0,0c0.03,0,0.05-0.01,0.08-0.02c0.05-0.02,0.09-0.06,0.11-0.11c0.02-0.04,0.01-0.08,0-0.12
		C4.23,2.32,4.12,2.28,4.02,2.32C3.97,2.35,3.93,2.39,3.91,2.43c-0.01,0.04-0.01,0.08,0,0.12C3.94,2.6,3.98,2.63,4.03,2.64
		C3.91,3.02,3.97,3.27,4.07,3.61c0.01,0.05,0.03,0.11,0.04,0.16c0.06,0.22,0.12,0.37,0.21,0.51C4.45,4.5,4.66,4.67,4.88,4.83
		c-0.23,0-0.44-0.04-0.64-0.1c0-0.01,0-0.03-0.01-0.03c-0.01,0-0.84-0.41-0.88-1.49c0.02,0,0.04-0.01,0.06-0.02
		c0.07-0.03,0.13-0.09,0.16-0.16c0.02-0.06,0.02-0.12,0-0.17C3.51,2.73,3.35,2.68,3.21,2.74C3.14,2.77,3.08,2.83,3.05,2.9
		c-0.02,0.06-0.02,0.12,0,0.17c0.04,0.09,0.13,0.14,0.23,0.14c0,0,0.01,0,0.01,0c0.03,0.85,0.55,1.3,0.79,1.46
		C3.28,4.36,2.78,3.7,2.74,3.65c0.04-0.03,0.07-0.07,0.09-0.11c0.02-0.05,0.02-0.11,0-0.15C2.77,3.28,2.63,3.23,2.5,3.29
		C2.43,3.32,2.38,3.37,2.36,3.43c-0.02,0.05-0.02,0.11,0,0.15C2.4,3.66,2.48,3.71,2.57,3.71c0.04,0,0.07-0.01,0.11-0.02
		c0.01,0,0.02-0.01,0.03-0.02L2.7,3.68c0.01,0.01,0.89,1.2,2.23,1.2c0.01,0,0.02,0,0.03,0c0,0,0,0.01,0,0.01
		c0.45,2.71,0.19,4.55-0.82,5.63c-0.01,0.01-0.02,0.01-0.02,0.02c-0.2,0.23-0.39,0.45-0.57,0.64"/>
	<path class="st3" d="M5.28-1.69C4.99-1.57,4.7-1.43,4.42-1.27c-0.28,0.16-0.55,0.33-0.8,0.52C3.11-0.37,2.64,0.07,2.24,0.56
		C1.43,1.54,0.87,2.73,0.62,3.99C0.5,4.61,0.46,5.25,0.49,5.89c0.04,0.64,0.15,1.27,0.33,1.88c0.19,0.61,0.46,1.2,0.79,1.74
		l0.13,0.2c0.02,0.03,0.04,0.07,0.07,0.1l0.07,0.1l0.14,0.2l0.15,0.19l0.07,0.09c0.03,0.03,0.05,0.06,0.08,0.09l0.16,0.18
		c0.05,0.06,0.11,0.12,0.16,0.17c0.06,0.06,0.11,0.12,0.17,0.17c0.46,0.45,0.96,0.84,1.52,1.17l0.21,0.12l0.21,0.11l0.11,0.06
		c0.04,0.02,0.07,0.03,0.11,0.05l0.22,0.1c0.07,0.03,0.15,0.06,0.22,0.09l0.11,0.04l0.06,0.02l0.06,0.02
		c0.15,0.05,0.3,0.11,0.46,0.15c0.08,0.02,0.15,0.04,0.23,0.07l0.23,0.05l0.12,0.03c0.04,0.01,0.08,0.01,0.12,0.02l0.24,0.04
		c0.04,0.01,0.08,0.01,0.12,0.02l0.12,0.02l0.12,0.02c0.04,0.01,0.08,0.01,0.12,0.01l0.24,0.02c0.04,0,0.08,0.01,0.12,0.01l0.12,0
		l0.24,0.01c0.08,0,0.16,0,0.24,0c0.08,0,0.16-0.01,0.24-0.01c0.08-0.01,0.16-0.01,0.24-0.02c0.32-0.03,0.64-0.08,0.95-0.14
		c0.63-0.13,1.23-0.35,1.81-0.64c0.29-0.14,0.56-0.31,0.83-0.48c0.07-0.05,0.13-0.09,0.2-0.14l0.19-0.14l0.19-0.15
		c0.06-0.05,0.12-0.1,0.18-0.15c0.24-0.21,0.47-0.43,0.68-0.67c0.21-0.24,0.41-0.49,0.6-0.75l0.07-0.1l0.03-0.05l0.03-0.05l0.13-0.2
		l0.12-0.21c0.04-0.07,0.08-0.14,0.11-0.21c0.15-0.28,0.28-0.57,0.39-0.87l-0.01,0c-0.24,0.59-0.55,1.15-0.92,1.66
		c-0.19,0.26-0.39,0.5-0.6,0.73c-0.22,0.23-0.45,0.45-0.69,0.65c-0.06,0.05-0.12,0.1-0.18,0.15l-0.19,0.14l-0.19,0.14
		c-0.06,0.05-0.13,0.09-0.2,0.13c-0.26,0.17-0.54,0.33-0.82,0.47c-0.57,0.27-1.17,0.49-1.79,0.61c-0.31,0.07-0.62,0.11-0.93,0.14
		c-0.08,0.01-0.16,0.01-0.24,0.02c-0.08,0-0.16,0.01-0.24,0.01c-0.08,0-0.16,0-0.24,0l-0.24-0.01l-0.12,0
		c-0.04,0-0.08-0.01-0.12-0.01L7.5,13.09c-0.04,0-0.08-0.01-0.12-0.01l-0.12-0.01l-0.12-0.01c-0.04-0.01-0.08-0.01-0.12-0.02
		L6.8,12.99c-0.04-0.01-0.08-0.01-0.12-0.02l-0.12-0.03l-0.23-0.05c-0.08-0.02-0.15-0.04-0.23-0.06c-0.15-0.04-0.3-0.09-0.45-0.14
		L5.6,12.66l-0.06-0.02L5.44,12.6c-0.07-0.03-0.15-0.06-0.22-0.09L5,12.41c-0.04-0.02-0.07-0.03-0.11-0.05l-0.11-0.05L4.58,12.2
		l-0.21-0.12c-0.55-0.31-1.05-0.7-1.51-1.14c-0.06-0.05-0.11-0.11-0.17-0.17c-0.05-0.06-0.11-0.11-0.16-0.17l-0.16-0.18
		c-0.03-0.03-0.05-0.06-0.08-0.09l-0.07-0.09l-0.15-0.19L1.95,9.87l-0.07-0.1C1.86,9.74,1.84,9.7,1.81,9.67l-0.13-0.2
		C1.35,8.93,1.09,8.35,0.9,7.75c-0.19-0.6-0.3-1.23-0.34-1.86C0.52,5.26,0.57,4.62,0.68,4c0.24-1.24,0.78-2.43,1.59-3.41
		c0.4-0.49,0.86-0.93,1.37-1.32c0.25-0.19,0.52-0.37,0.8-0.52c0.28-0.16,0.56-0.3,0.85-0.42L5.28-1.69z"/>
</g>
</svg>
