<?xml version="1.0" encoding="utf-8"?>
<!-- Generator: Adobe Illustrator 23.0.0, SVG Export Plug-In . SVG Version: 6.00 Build 0)  -->
<svg version="1.1" id="Calque_1" xmlns="http://www.w3.org/2000/svg" xmlns:xlink="http://www.w3.org/1999/xlink" x="0px" y="0px"
	 viewBox="0 0 238.59 638.3" style="enable-background:new 0 0 238.59 638.3;" xml:space="preserve">
<style type="text/css">
	.st0{fill:#5E5D5C;}
	.st1{fill:#FAB62D;}
</style>
<g>
	<path class="st0" d="M176.93,335.26c0.94-3.14,4.25-4.92,7.4-3.98c3.14,0.94,4.92,4.25,3.98,7.4c-0.94,3.14-4.25,4.92-7.4,3.98
		C177.77,341.71,175.99,338.4,176.93,335.26"/>
</g>
<g>
	<path class="st0" d="M182.62,331.54c-0.89,0-1.76,0.22-2.57,0.65c-1.28,0.69-2.21,1.83-2.63,3.22s-0.27,2.85,0.42,4.13
		s1.83,2.21,3.22,2.63s2.85,0.27,4.13-0.42s2.21-1.83,2.63-3.22s0.27-2.85-0.42-4.13s-1.83-2.21-3.21-2.63
		C183.67,331.62,183.14,331.54,182.62,331.54 M182.63,343.43c-0.62,0-1.25-0.09-1.87-0.27c-1.65-0.5-3.01-1.61-3.83-3.13
		c-0.81-1.51-0.99-3.26-0.49-4.91s1.61-3.01,3.13-3.83c1.51-0.82,3.26-0.99,4.91-0.5c3.4,1.03,5.35,4.63,4.32,8.04
		c-0.49,1.65-1.6,3.01-3.12,3.83C184.73,343.17,183.68,343.43,182.63,343.43"/>
</g>
<g>
	<path class="st0" d="M131.23,353.31c-1.14,0-2.19,0.74-2.53,1.89c-0.42,1.4,0.38,2.87,1.77,3.3s2.87-0.37,3.3-1.77
		c0.42-1.4-0.38-2.87-1.77-3.3C131.74,353.34,131.48,353.31,131.23,353.31 M131.23,359.63c-0.35,0-0.71-0.05-1.06-0.16
		c-1.94-0.59-3.04-2.64-2.46-4.58c0.59-1.94,2.64-3.04,4.58-2.46c1.94,0.59,3.04,2.64,2.46,4.58
		C134.28,358.6,132.81,359.63,131.23,359.63"/>
</g>
<g>
	<path class="st0" d="M198.78,351.9c-2.27-0.69-3.56-3.09-2.88-5.36c0.33-1.1,1.07-2,2.08-2.55c0.63-0.34,1.33-0.52,2.03-0.52
		c0.42,0,0.83,0.06,1.24,0.19c2.27,0.69,3.56,3.09,2.88,5.36c-0.33,1.1-1.07,2-2.08,2.55C201.04,352.11,199.88,352.23,198.78,351.9
		 M166.85,328.19c-0.23,0.75-0.73,1.37-1.42,1.74s-1.48,0.45-2.23,0.23c-1.55-0.46-2.43-2.11-1.96-3.66
		c0.23-0.75,0.73-1.37,1.42-1.74c0.43-0.23,0.91-0.35,1.39-0.35c0.28,0,0.57,0.04,0.84,0.12
		C166.44,324.99,167.32,326.64,166.85,328.19 M154.89,351.55c-0.27,0.92-0.89,1.68-1.75,2.13c-0.84,0.46-1.81,0.56-2.73,0.28
		c-1.9-0.57-2.98-2.58-2.41-4.48l0,0c0.28-0.92,0.9-1.68,1.74-2.13c0.53-0.28,1.11-0.43,1.69-0.43c0.35,0,0.7,0.05,1.04,0.15
		C154.38,347.64,155.46,349.65,154.89,351.55 M108.97,361.29c1.67,0.5,2.63,2.28,2.12,3.96c-0.24,0.81-0.79,1.48-1.54,1.89
		c-0.75,0.4-1.61,0.48-2.42,0.24c-1.67-0.5-2.63-2.28-2.12-3.96c0.24-0.81,0.79-1.48,1.54-1.89c0.47-0.25,0.98-0.38,1.5-0.38
		C108.37,361.16,108.67,361.2,108.97,361.29 M98.86,361.46c-0.33,1.11-1.08,2.03-2.1,2.58s-2.19,0.67-3.31,0.33
		c-2.29-0.69-3.6-3.12-2.91-5.42c0.33-1.11,1.08-2.03,2.1-2.58c0.64-0.35,1.34-0.52,2.05-0.52c0.42,0,0.84,0.06,1.26,0.19
		C98.24,356.73,99.55,359.16,98.86,361.46 M109.38,455.01c0.39,0.64,0.5,1.4,0.32,2.13c-0.19,0.73-0.64,1.34-1.28,1.74
		c-1.33,0.8-3.08,0.38-3.88-0.95l0,0c-0.39-0.64-0.5-1.4-0.32-2.13s0.64-1.34,1.28-1.74c0.46-0.28,0.96-0.41,1.46-0.41
		C107.92,453.65,108.85,454.13,109.38,455.01 M89.68,461.58c0.69,1.13,0.89,2.47,0.57,3.76c-0.31,1.29-1.12,2.38-2.26,3.07
		c-2.35,1.42-5.42,0.67-6.84-1.68c-0.69-1.14-0.89-2.47-0.57-3.76c0.31-1.29,1.12-2.38,2.26-3.07c0.8-0.48,1.69-0.72,2.57-0.72
		C87.1,459.18,88.74,460.03,89.68,461.58 M64.54,519.96c0.54,0.89,0.7,1.93,0.45,2.94s-0.88,1.86-1.77,2.4
		c-1.84,1.11-4.24,0.52-5.36-1.32c-0.54-0.89-0.7-1.93-0.45-2.94s0.88-1.86,1.77-2.4c0.63-0.38,1.33-0.56,2.01-0.56
		C62.51,518.08,63.81,518.75,64.54,519.96 M46.87,535.21c-3.52,2.13-4.66,6.73-2.52,10.28c1.4,2.32,3.87,3.6,6.4,3.6
		c1.32,0,2.65-0.35,3.85-1.08c1.71-1.04,2.91-2.67,3.39-4.61c0.11-0.46,0.18-0.93,0.21-1.39l0.04,0.35
		c16.81-1.7,28.47-6.67,43.02-18.31c5.17-4.14,9.33-8.39,12.61-12.88c6.5,5.36,13.23,10.77,19.73,16
		c38.98,31.33,79.28,63.74,101.86,110.12c0.13,0.27,0.41,0.43,0.7,0.43c0.12,0,0.23-0.03,0.34-0.08c0.11-0.06,0.21-0.14,0.28-0.23
		c0.08,0.03,0.15,0.04,0.23,0.04c0.13,0,0.26-0.03,0.38-0.1c0.37-0.21,0.5-0.68,0.29-1.05c-2.49-4.4-4.99-8.81-7.5-13.21
		c-14.55-25.59-29.59-52.05-41.51-80.42l-0.04-0.08l-3.5-6.16c-0.58-1.74-1.32-3.4-2.03-5.02c-0.71-1.6-1.44-3.26-2-4.95l-0.04-0.09
		c-16.73-35.48-35.53-82.68-32.61-133.38c0.3-0.04,0.6-0.07,0.9-0.12c16.14-2.47,28.58-13.13,36.18-21.63
		c7.73-8.66,12.15-16.92,12.67-17.91c0.06,0.02,0.11,0.05,0.17,0.06c0.56,0.17,1.12,0.25,1.69,0.25c0.95,0,1.9-0.24,2.76-0.7
		c1.38-0.74,2.38-1.97,2.83-3.47c0.93-3.09-0.83-6.36-3.91-7.28c-1.49-0.45-3.08-0.29-4.45,0.45c-1.38,0.74-2.38,1.97-2.83,3.47
		c-0.76,2.52,0.27,5.16,2.35,6.55c-0.89,1.68-10.55,19.46-27.21,30.49c5.46-5.72,15.38-19.22,14.15-40.71
		c-0.02-0.43-0.39-0.76-0.81-0.73c-0.43,0.02-0.75,0.39-0.73,0.81c1.64,28.47-16.76,42.4-16.95,42.54c-0.27,0.2-0.37,0.54-0.28,0.84
		c-4.32,2.32-9.03,4.14-14.11,5.12c4.53-4.9,9.05-10.04,11.85-16.29c1.69-3.77,2.81-8.04,3.65-13.83c0.22-1.52,0.44-2.96,0.66-4.34
		c1.43-9.18,2.45-15.85-1.12-25.13c0.1-0.04,0.2-0.08,0.29-0.13c1.06-0.57,1.82-1.51,2.17-2.66c0.71-2.37-0.63-4.87-3-5.58
		c-1.14-0.35-2.36-0.22-3.41,0.35c-1.06,0.57-1.82,1.51-2.17,2.66c-0.71,2.37,0.63,4.87,3,5.58c0.42,0.13,0.86,0.19,1.29,0.19
		c0.1,0,0.21-0.02,0.31-0.02c3.5,8.99,2.49,15.51,1.1,24.51c-0.22,1.39-0.44,2.83-0.66,4.36c-0.81,5.65-1.9,9.79-3.52,13.42
		c-1.9,4.24-4.66,7.99-7.68,11.52c4.29-7.01,8.32-18.43,0.85-30.92c0.92-0.65,1.59-1.59,1.92-2.69c0.81-2.71-0.73-5.58-3.44-6.4
		c-1.31-0.39-2.7-0.25-3.91,0.4s-2.09,1.73-2.49,3.05c-0.81,2.71,0.73,5.59,3.44,6.4c1.03,0.31,2.1,0.29,3.1-0.05
		c4.87,8.08,5.35,16.61,1.43,25.33c-2.3,5.12-5.53,8.83-6.9,10.27c-8.42-8.6-14.03-20.22-15.47-32.16l-1.54,0.19
		c1.28,10.65,5.8,21.06,12.63,29.4c-0.12-0.09-0.24-0.18-0.37-0.27c-16.59-12.31-25.39-25.06-29.41-42.61l-1.5,0.35
		c4.11,17.94,13.08,30.95,30,43.5c1.08,0.8,2.18,1.57,3.28,2.33c-2.45,0.15-4.86,0.09-7.24-0.2c-0.07-0.18-0.21-0.32-0.4-0.41
		c-0.24-0.11-23.97-11.01-26.16-23.1c-0.02-0.1-0.06-0.2-0.11-0.28c0.59-0.56,1.03-1.26,1.27-2.06c0.75-2.49-0.67-5.13-3.16-5.88
		c-1.21-0.36-2.48-0.23-3.59,0.37c-1.11,0.6-1.92,1.59-2.28,2.8c-0.75,2.49,0.67,5.13,3.16,5.88c0.45,0.13,0.91,0.2,1.37,0.2
		c0.65,0,1.3-0.14,1.91-0.42c2.05,9.75,16.19,18.31,23.15,21.99c-11.58-2.94-22.65-11.42-34.44-26.09c0.77-0.71,1.34-1.61,1.65-2.64
		c0.94-3.11-0.83-6.41-3.95-7.35c-1.5-0.45-3.1-0.29-4.49,0.45s-2.4,1.99-2.85,3.5l0,0c-0.94,3.11,0.83,6.41,3.95,7.35
		c0.56,0.17,1.14,0.25,1.71,0.25c0.94,0,1.86-0.23,2.71-0.67c9.27,11.55,18.18,19.31,27.22,23.69c5.88,2.85,11.83,4.25,18.05,4.25
		c1.38,0,2.77-0.08,4.18-0.22c-2.86,50.92,15.98,98.24,32.75,133.81c0.58,1.75,1.33,3.43,2.05,5.05c0.71,1.6,1.44,3.26,2,4.95
		l0.06,0.14l3.52,6.18c9.7,23.08,21.45,44.88,33.32,65.97c-23.19-32.79-55.01-58.38-86-83.31c-6.53-5.25-13.29-10.68-19.81-16.06
		c0.69-0.99,1.33-2,1.93-3.02c6.96-11.85,8.59-26.17,10.03-38.81c0.89-7.82,1.06-16.4-4.07-21.57c0.76-0.77,1.31-1.73,1.58-2.8
		c0.39-1.57,0.14-3.19-0.7-4.57s-2.16-2.35-3.72-2.74c-1.57-0.39-3.19-0.14-4.57,0.7c-2.85,1.72-3.77,5.44-2.05,8.29
		c1.13,1.87,3.13,2.91,5.18,2.91c1.04,0,2.09-0.27,3.04-0.83c4.81,4.71,4.62,12.93,3.77,20.44c-1.4,12.23-2.97,26.07-9.43,37.51
		c1.73-8.36,3.83-26.96-5.61-45.92c0.52-0.55,0.9-1.22,1.08-1.97c0.28-1.13,0.1-2.3-0.5-3.3c-1.25-2.06-3.94-2.72-6-1.47
		c-1,0.61-1.71,1.56-1.98,2.69c-0.28,1.13-0.1,2.3,0.5,3.3c0.82,1.35,2.27,2.1,3.74,2.1c0.64,0,1.28-0.15,1.88-0.44
		c10.14,20.57,6.46,40.62,4.85,47c-0.67-2.48-1.85-4.79-3.01-7.04c-0.57-1.11-1.16-2.26-1.68-3.4c-0.78-1.73-1.49-3.37-2.18-4.96
		c-4.17-9.61-7.19-16.57-16.14-24c0.49-0.67,0.86-1.45,1.07-2.29c0.42-1.69,0.15-3.44-0.75-4.93c-1.86-3.08-5.88-4.06-8.96-2.2
		c-1.49,0.9-2.54,2.33-2.96,4.02s-0.15,3.44,0.75,4.93c1.23,2.02,3.38,3.14,5.59,3.14c1.15,0,2.31-0.3,3.36-0.94
		c0.3-0.18,0.57-0.39,0.83-0.61c8.73,7.22,11.69,14.05,15.79,23.49c0.69,1.59,1.41,3.23,2.18,4.97c0.53,1.18,1.13,2.35,1.72,3.48
		c1.24,2.41,2.41,4.7,3,7.16c-6.51-9.16-16.09-17.56-26.05-22.79c0.02-0.05,0.03-0.09,0.05-0.14c0.23-0.85,0.11-1.74-0.32-2.5
		c-0.44-0.76-1.14-1.31-1.99-1.54c-1.75-0.48-3.56,0.56-4.03,2.31c-0.23,0.85-0.12,1.74,0.32,2.5s1.14,1.31,1.99,1.54
		c0.29,0.08,0.58,0.11,0.87,0.11c0.57,0,1.13-0.15,1.63-0.44c0.26-0.15,0.49-0.33,0.69-0.53c9.88,5.17,19.73,13.9,26.05,23.03
		c-26.46,1.89-38.86-14.14-40.67-16.73c0.91-0.69,1.55-1.65,1.83-2.77c0.32-1.29,0.11-2.63-0.57-3.76
		c-0.69-1.13-1.78-1.93-3.06-2.25c-1.29-0.32-2.63-0.11-3.76,0.57c-2.34,1.42-3.1,4.48-1.68,6.82c0.93,1.54,2.58,2.4,4.26,2.4
		c0.54,0,1.08-0.1,1.61-0.28c0.75,1.11,3.97,5.58,10.26,9.8c5.63,3.77,14.72,7.91,27.51,7.91c1,0,2.02-0.03,3.06-0.08
		c-8.62,5.02-30.46,16.32-43.65,10.79c0.04-1.06-0.22-2.1-0.78-3.03c-1.56-2.57-4.91-3.39-7.48-1.84c-1.25,0.75-2.13,1.94-2.47,3.35
		s-0.12,2.87,0.63,4.12c1.03,1.69,2.83,2.62,4.67,2.62c0.96,0,1.93-0.25,2.81-0.78c1.11-0.67,1.92-1.68,2.33-2.89
		c2.63,1.05,5.55,1.5,8.61,1.5c12.72,0,27.87-7.73,35.31-12.02c-2.78,3.3-6.08,6.48-9.98,9.6c-14.26,11.42-25.69,16.29-42.13,17.97
		c-0.12-1.07-0.46-2.11-1.03-3.06C54.99,534.21,50.39,533.08,46.87,535.21"/>
</g>
<g>
	<path class="st0" d="M189.95,136.85c-2.66-3.81-8.11-4.62-12.16-1.8c-4.05,2.82-5.17,8.22-2.51,12.03s8.11,4.62,12.16,1.8
		C191.48,146.06,192.61,140.66,189.95,136.85 M174.1,147.9c-3.09-4.43-1.78-10.7,2.92-13.97s11.03-2.34,14.12,2.09
		s1.78,10.7-2.92,13.97C183.52,153.27,177.19,152.33,174.1,147.9 M187.76,35.36c-1.86-2.66-5.67-3.23-8.5-1.26
		c-2.83,1.97-3.61,5.74-1.75,8.41c1.86,2.66,5.67,3.23,8.5,1.26S189.62,38.02,187.76,35.36 M176.32,43.34
		c-2.29-3.28-1.32-7.92,2.16-10.35c3.48-2.43,8.17-1.73,10.45,1.55c2.29,3.28,1.32,7.92-2.16,10.35S178.61,46.62,176.32,43.34
		 M166.15,266.73c-2.66-3.81-8.11-4.62-12.16-1.8s-5.17,8.22-2.51,12.03c2.66,3.81,8.11,4.62,12.16,1.8
		C167.68,275.94,168.8,270.54,166.15,266.73 M150.29,277.78c-3.09-4.43-1.78-10.7,2.92-13.97c4.7-3.27,11.03-2.34,14.11,2.09
		c3.09,4.43,1.78,10.7-2.92,13.97C159.72,283.15,153.38,282.21,150.29,277.78 M160.23,190.52c-1.86-2.66-5.67-3.23-8.5-1.26
		s-3.61,5.74-1.75,8.41s5.67,3.23,8.5,1.26C161.3,196.96,162.09,193.18,160.23,190.52 M148.8,198.49
		c-2.29-3.28-1.32-7.92,2.16-10.35c3.48-2.43,8.17-1.73,10.45,1.55c2.29,3.28,1.32,7.92-2.16,10.35
		C155.78,202.47,151.09,201.77,148.8,198.49"/>
</g>
<g>
	<path class="st0" d="M105.55,340.2c0.83-2.76,3.74-4.33,6.5-3.5s4.33,3.74,3.5,6.5s-3.74,4.33-6.5,3.5S104.72,342.96,105.55,340.2"
		/>
</g>
<g>
	<path class="st0" d="M110.54,336.99c-0.77,0-1.52,0.19-2.22,0.56c-1.11,0.59-1.92,1.58-2.28,2.79c-0.36,1.2-0.23,2.47,0.36,3.58
		s1.58,1.92,2.79,2.28c1.2,0.37,2.47,0.24,3.58-0.36c1.11-0.59,1.92-1.58,2.28-2.79c0.75-2.48-0.67-5.11-3.15-5.86
		C111.46,337.06,111,336.99,110.54,336.99 M110.56,347.43c-0.56,0-1.11-0.08-1.66-0.24c-1.47-0.44-2.67-1.43-3.4-2.78
		c-0.73-1.34-0.89-2.89-0.44-4.36c0.44-1.47,1.43-2.67,2.78-3.4c1.35-0.73,2.9-0.88,4.37-0.44c3.03,0.91,4.75,4.11,3.84,7.14
		c-0.44,1.47-1.43,2.67-2.78,3.4C112.42,347.2,111.5,347.43,110.56,347.43"/>
</g>
<path class="st1" d="M132.66,237.55c3.19-2.23,7.47-1.59,9.57,1.42c2.1,3.01,1.21,7.25-1.98,9.47c-3.19,2.23-7.47,1.59-9.57-1.42
	C128.58,244.01,129.47,239.77,132.66,237.55"/>
<path class="st1" d="M197.82,179.52c5.91-4.12,13.86-2.95,17.75,2.63s2.25,13.44-3.67,17.56c-5.91,4.12-13.86,2.95-17.75-2.63
	S191.91,183.64,197.82,179.52"/>
<path class="st1" d="M120.46,16.84c2.9-2.02,6.8-1.45,8.71,1.29s1.1,6.6-1.8,8.62c-2.9,2.02-6.8,1.45-8.71-1.29
	C116.75,22.73,117.55,18.87,120.46,16.84"/>
<path class="st1" d="M201.07,77.06c3.19-2.22,7.47-1.59,9.57,1.42c2.1,3.01,1.21,7.25-1.98,9.47c-3.19,2.23-7.47,1.59-9.57-1.42
	C196.99,83.52,197.88,79.28,201.07,77.06"/>
<path class="st1" d="M55.7,8.6c-1.36-1.95-4.16-2.37-6.24-0.92s-2.65,4.22-1.29,6.17c1.37,1.96,4.16,2.37,6.24,0.92
	C56.49,13.32,57.06,10.55,55.7,8.6 M47.78,14.12c-1.51-2.16-0.87-5.21,1.42-6.82c2.29-1.6,5.38-1.14,6.89,1.02s0.87,5.22-1.42,6.82
	S49.29,16.28,47.78,14.12"/>
<path class="st1" d="M115.07,441.6c0.72-2.39,3.24-3.74,5.63-3.02s3.74,3.24,3.02,5.63s-3.23,3.74-5.63,3.02
	C115.71,446.51,114.35,443.99,115.07,441.6"/>
<path class="st1" d="M178.3,337.17c0.72-2.39,3.23-3.74,5.63-3.02c2.39,0.72,3.74,3.24,3.02,5.63s-3.23,3.74-5.63,3.02
	C178.94,342.07,177.58,339.56,178.3,337.17"/>
<path class="st1" d="M107.01,341.23c0.72-2.39,3.24-3.74,5.63-3.02s3.74,3.24,3.02,5.63s-3.23,3.74-5.63,3.02
	C107.64,346.13,106.29,343.62,107.01,341.23"/>
<path class="st1" d="M65.69,489.29c0.54-1.79,2.43-2.81,4.22-2.27s2.81,2.43,2.27,4.22s-2.43,2.81-4.22,2.27
	C66.17,492.98,65.16,491.08,65.69,489.29"/>
<path class="st1" d="M46.88,539.02c0.83-2.76,3.74-4.32,6.5-3.5c2.76,0.83,4.33,3.74,3.5,6.5c-0.83,2.76-3.74,4.33-6.5,3.5
	C47.61,544.69,46.05,541.78,46.88,539.02"/>
</svg>
