<?xml version="1.0" encoding="utf-8"?>
<!-- Generator: Adobe Illustrator 23.0.0, SVG Export Plug-In . SVG Version: 6.00 Build 0)  -->
<svg version="1.1" id="Calque_1" xmlns="http://www.w3.org/2000/svg" xmlns:xlink="http://www.w3.org/1999/xlink" x="0px" y="0px"
	 viewBox="0 0 238.59 638.3" style="enable-background:new 0 0 238.59 638.3;" xml:space="preserve">
<style type="text/css">
	.st0{fill:#5E5D5C;}
	.st1{fill:#B0CFD6;}
	.st2{fill:#9FCEDA;}
	.st3{fill:#77B9D3;}
	.st4{fill:#9C8DBF;}
	.st5{fill:#9A8DC1;}
	.st6{fill:#73A7CE;}
	.st7{enable-background:new    ;}
	.st8{fill:#F4A7B1;}
	.st9{fill:#D97298;}
</style>
<g>
	<g>
		<path class="st0" d="M60.84,334.9c0.94,3.14-0.84,6.45-3.98,7.4c-3.14,0.94-6.45-0.84-7.4-3.98c-0.94-3.14,0.84-6.45,3.98-7.4
			C56.59,329.97,59.9,331.76,60.84,334.9"/>
	</g>
	<g>
		<path class="st0" d="M55.16,331.18c-0.53,0-1.05,0.08-1.57,0.23c-1.39,0.42-2.53,1.35-3.21,2.63c-0.69,1.28-0.83,2.75-0.42,4.13
			c0.42,1.39,1.35,2.53,2.63,3.22c1.28,0.69,2.75,0.83,4.13,0.42c1.39-0.42,2.53-1.35,3.22-2.63c0.69-1.28,0.83-2.75,0.42-4.13
			c-0.42-1.39-1.35-2.53-2.63-3.22C56.92,331.4,56.05,331.18,55.16,331.18 M55.15,343.07c-1.05,0-2.1-0.26-3.05-0.77
			c-1.52-0.82-2.63-2.17-3.12-3.83c-1.03-3.41,0.92-7.02,4.32-8.04c1.65-0.49,3.4-0.32,4.91,0.5c1.52,0.82,2.63,2.17,3.13,3.83
			c0.49,1.65,0.32,3.4-0.49,4.91c-0.82,1.52-2.18,2.63-3.83,3.13C56.4,342.98,55.77,343.07,55.15,343.07"/>
	</g>
	<g>
		<path class="st0" d="M106.55,352.94c-0.25,0-0.51,0.04-0.76,0.11c-1.4,0.42-2.19,1.9-1.77,3.3c0.42,1.4,1.9,2.19,3.3,1.77
			c1.4-0.42,2.19-1.9,1.77-3.3C108.74,353.69,107.68,352.94,106.55,352.94 M106.55,359.27c-1.58,0-3.05-1.03-3.52-2.62
			c-0.58-1.94,0.52-4,2.46-4.58c1.95-0.58,4,0.52,4.58,2.46c0.58,1.94-0.52,4-2.46,4.58C107.26,359.22,106.9,359.27,106.55,359.27"
			/>
	</g>
	<g>
		<path class="st0" d="M39,351.54c-1.1,0.33-2.26,0.21-3.27-0.33c-1.01-0.55-1.75-1.45-2.08-2.55c-0.68-2.27,0.61-4.68,2.88-5.36
			c0.41-0.12,0.82-0.19,1.24-0.19c0.7,0,1.4,0.18,2.03,0.52c1.01,0.55,1.75,1.45,2.08,2.55C42.56,348.45,41.26,350.85,39,351.54
			 M70.92,327.83c-0.46-1.55,0.42-3.19,1.96-3.66c0.28-0.08,0.56-0.12,0.84-0.12c0.48,0,0.95,0.12,1.39,0.35
			c0.69,0.37,1.2,0.99,1.42,1.74c0.46,1.55-0.42,3.19-1.96,3.66c-0.75,0.23-1.54,0.14-2.23-0.23
			C71.66,329.2,71.15,328.58,70.92,327.83 M82.89,351.19c-0.57-1.9,0.51-3.91,2.41-4.48c0.34-0.1,0.69-0.15,1.04-0.15
			c0.58,0,1.16,0.14,1.69,0.43c0.84,0.45,1.46,1.21,1.74,2.13l0,0c0.57,1.9-0.51,3.91-2.41,4.48c-0.92,0.28-1.89,0.18-2.73-0.28
			C83.78,352.87,83.16,352.11,82.89,351.19 M128.8,360.93c0.3-0.09,0.61-0.13,0.92-0.13c0.52,0,1.03,0.13,1.5,0.38
			c0.75,0.4,1.29,1.07,1.54,1.89c0.5,1.68-0.45,3.45-2.12,3.96c-0.81,0.24-1.67,0.15-2.42-0.24c-0.75-0.4-1.29-1.07-1.54-1.89
			C126.18,363.21,127.13,361.44,128.8,360.93 M138.92,361.1c-0.69-2.3,0.62-4.73,2.91-5.42c0.41-0.12,0.83-0.19,1.26-0.19
			c0.71,0,1.41,0.18,2.05,0.52c1.03,0.55,1.77,1.47,2.1,2.58c0.69,2.3-0.62,4.73-2.91,5.42c-1.11,0.33-2.29,0.22-3.31-0.33
			S139.26,362.21,138.92,361.1 M128.4,454.64c0.53-0.88,1.46-1.36,2.42-1.36c0.5,0,1,0.13,1.46,0.41c0.64,0.39,1.1,1,1.28,1.74
			c0.18,0.73,0.06,1.49-0.32,2.13l0,0c-0.8,1.33-2.54,1.76-3.88,0.95c-0.64-0.39-1.1-1-1.28-1.74
			C127.89,456.04,128.01,455.29,128.4,454.64 M148.1,461.22c0.94-1.55,2.58-2.4,4.27-2.4c0.88,0,1.77,0.23,2.57,0.72
			c1.14,0.69,1.94,1.78,2.26,3.07c0.32,1.29,0.11,2.62-0.57,3.76c-1.42,2.35-4.49,3.1-6.84,1.68c-1.14-0.69-1.94-1.78-2.26-3.06
			C147.21,463.68,147.41,462.35,148.1,461.22 M173.24,519.6c0.73-1.21,2.02-1.88,3.34-1.88c0.69,0,1.39,0.18,2.01,0.56
			c0.89,0.54,1.52,1.39,1.77,2.4s0.09,2.06-0.45,2.94c-1.11,1.84-3.52,2.43-5.36,1.32c-0.89-0.54-1.52-1.39-1.77-2.4
			C172.54,521.53,172.7,520.49,173.24,519.6 M190.91,534.85c-3.52-2.13-8.12-1-10.26,2.52c-0.57,0.95-0.91,1.99-1.03,3.06
			c-16.44-1.68-27.86-6.55-42.13-17.97c-3.9-3.12-7.21-6.3-9.98-9.6c7.44,4.3,22.59,12.02,35.31,12.02c3.06,0,5.98-0.45,8.61-1.5
			c0.41,1.21,1.23,2.22,2.33,2.89c0.88,0.53,1.85,0.78,2.81,0.78c1.84,0,3.65-0.93,4.67-2.62c0.75-1.24,0.97-2.7,0.63-4.12
			s-1.23-2.6-2.47-3.35c-2.57-1.55-5.92-0.73-7.48,1.84c-0.56,0.93-0.82,1.97-0.78,3.03c-13.19,5.53-35.02-5.77-43.65-10.79
			c1.04,0.05,2.06,0.08,3.06,0.08c12.79,0,21.88-4.14,27.51-7.91c6.29-4.21,9.51-8.69,10.26-9.8c0.53,0.18,1.07,0.28,1.61,0.28
			c1.68,0,3.33-0.86,4.26-2.4c1.42-2.34,0.66-5.4-1.68-6.82c-1.13-0.69-2.47-0.89-3.76-0.57c-1.29,0.32-2.37,1.12-3.06,2.25
			c-0.69,1.13-0.89,2.47-0.57,3.76c0.28,1.12,0.92,2.09,1.83,2.77c-1.82,2.59-14.21,18.62-40.67,16.73
			c6.32-9.13,16.17-17.86,26.05-23.03c0.2,0.2,0.43,0.38,0.69,0.53c0.5,0.29,1.07,0.44,1.63,0.44c0.29,0,0.58-0.04,0.87-0.11
			c0.85-0.23,1.56-0.78,1.99-1.54c0.44-0.76,0.55-1.65,0.32-2.5c-0.47-1.75-2.28-2.79-4.03-2.31c-0.85,0.23-1.56,0.78-1.99,1.54
			c-0.44,0.76-0.55,1.65-0.32,2.5c0.02,0.05,0.03,0.09,0.05,0.14c-9.96,5.23-19.55,13.64-26.05,22.79c0.59-2.45,1.76-4.75,3-7.16
			c0.58-1.13,1.18-2.3,1.72-3.48c0.78-1.74,1.49-3.38,2.18-4.97c4.1-9.44,7.06-16.27,15.79-23.49c0.26,0.22,0.54,0.43,0.83,0.61
			c1.05,0.63,2.22,0.94,3.36,0.94c2.21,0,4.37-1.12,5.59-3.14c0.9-1.49,1.17-3.24,0.75-4.93s-1.47-3.12-2.96-4.02
			c-3.08-1.86-7.1-0.87-8.96,2.2c-0.9,1.49-1.17,3.24-0.75,4.93c0.21,0.84,0.57,1.61,1.07,2.29c-8.95,7.43-11.98,14.39-16.14,24
			c-0.69,1.59-1.4,3.23-2.18,4.96c-0.52,1.14-1.11,2.29-1.68,3.4c-1.16,2.25-2.34,4.56-3.01,7.04c-1.61-6.39-5.29-26.43,4.85-47
			c0.6,0.29,1.24,0.44,1.88,0.44c1.48,0,2.93-0.75,3.74-2.1c0.6-0.99,0.78-2.17,0.5-3.3c-0.28-1.13-0.98-2.09-1.98-2.69
			c-2.06-1.25-4.75-0.58-6,1.47c-0.6,1-0.78,2.17-0.5,3.3c0.19,0.75,0.56,1.42,1.08,1.97c-9.44,18.96-7.34,37.56-5.61,45.92
			c-6.46-11.44-8.04-25.27-9.43-37.51c-0.86-7.51-1.04-15.73,3.77-20.44c0.96,0.56,2,0.83,3.04,0.83c2.05,0,4.04-1.04,5.18-2.91
			c1.73-2.85,0.81-6.57-2.05-8.29c-1.38-0.83-3-1.08-4.57-0.7c-1.57,0.39-2.89,1.36-3.72,2.74s-1.08,3-0.7,4.57
			c0.26,1.08,0.81,2.03,1.58,2.8c-5.13,5.18-4.96,13.75-4.07,21.57c1.44,12.64,3.07,26.96,10.03,38.81c0.6,1.02,1.24,2.02,1.93,3.02
			c-6.52,5.38-13.27,10.81-19.81,16.06c-30.99,24.92-62.82,50.52-86,83.31c11.87-21.09,23.62-42.88,33.32-65.97l3.52-6.18l0.06-0.14
			c0.56-1.69,1.29-3.35,2-4.95c0.72-1.62,1.46-3.3,2.05-5.05c16.77-35.57,35.61-82.89,32.75-133.81c1.41,0.14,2.8,0.22,4.18,0.22
			c6.22,0,12.17-1.41,18.05-4.25c9.04-4.38,17.95-12.13,27.22-23.69c0.85,0.44,1.78,0.67,2.71,0.67c0.57,0,1.14-0.08,1.71-0.25
			c3.11-0.94,4.88-4.23,3.95-7.35l0,0c-0.45-1.51-1.47-2.75-2.85-3.5s-2.98-0.91-4.49-0.45c-3.11,0.94-4.88,4.23-3.95,7.35
			c0.31,1.03,0.88,1.93,1.65,2.64c-11.79,14.67-22.86,23.15-34.44,26.09c6.96-3.68,21.1-12.24,23.15-21.99
			c0.61,0.27,1.25,0.42,1.91,0.42c0.46,0,0.92-0.07,1.37-0.2c2.49-0.75,3.91-3.39,3.16-5.88c-0.36-1.21-1.17-2.2-2.28-2.8
			c-1.11-0.6-2.39-0.73-3.59-0.37c-2.49,0.75-3.91,3.39-3.16,5.88c0.24,0.8,0.68,1.5,1.27,2.06c-0.05,0.08-0.09,0.18-0.11,0.28
			c-2.19,12.08-25.92,22.99-26.16,23.1c-0.19,0.09-0.32,0.24-0.4,0.41c-2.38,0.29-4.79,0.35-7.24,0.2c1.1-0.76,2.2-1.54,3.28-2.33
			c16.92-12.55,25.89-25.56,30-43.5l-1.5-0.35c-4.02,17.55-12.82,30.29-29.41,42.61c-0.12,0.09-0.24,0.18-0.37,0.27
			c6.83-8.35,11.34-18.75,12.63-29.4l-1.54-0.19c-1.44,11.94-7.05,23.56-15.47,32.16c-1.37-1.44-4.6-5.15-6.9-10.27
			c-3.92-8.73-3.44-17.25,1.43-25.33c1,0.33,2.07,0.36,3.1,0.05c2.71-0.81,4.25-3.69,3.44-6.4c-0.4-1.32-1.28-2.4-2.49-3.05
			s-2.6-0.79-3.91-0.4c-2.71,0.82-4.25,3.69-3.44,6.4c0.33,1.1,1,2.04,1.92,2.69c-7.47,12.5-3.44,23.91,0.85,30.92
			c-3.02-3.53-5.77-7.28-7.68-11.52c-1.62-3.63-2.71-7.77-3.52-13.42c-0.22-1.52-0.44-2.97-0.66-4.36c-1.4-9-2.41-15.52,1.1-24.51
			c0.1,0.01,0.21,0.02,0.31,0.02c0.43,0,0.87-0.06,1.29-0.19c2.36-0.71,3.71-3.21,3-5.58c-0.35-1.15-1.11-2.09-2.17-2.66
			c-1.05-0.57-2.27-0.69-3.41-0.35c-2.36,0.71-3.71,3.21-3,5.58c0.35,1.15,1.11,2.09,2.17,2.66c0.1,0.05,0.2,0.09,0.29,0.13
			c-3.57,9.28-2.54,15.95-1.12,25.13c0.22,1.38,0.44,2.82,0.66,4.34c0.83,5.8,1.96,10.07,3.65,13.83
			c2.8,6.25,7.31,11.38,11.85,16.29c-5.08-0.98-9.8-2.8-14.11-5.12c0.09-0.3-0.01-0.64-0.28-0.84
			c-0.19-0.14-18.59-14.08-16.95-42.54c0.03-0.43-0.3-0.79-0.73-0.81c-0.42-0.03-0.79,0.3-0.81,0.73
			c-1.24,21.49,8.69,34.99,14.15,40.71c-16.66-11.03-26.32-28.81-27.21-30.49c2.08-1.39,3.11-4.03,2.35-6.55
			c-0.45-1.49-1.45-2.73-2.83-3.47c-1.38-0.74-2.96-0.9-4.45-0.45c-3.09,0.93-4.84,4.2-3.91,7.28c0.45,1.5,1.45,2.73,2.83,3.47
			c0.87,0.46,1.81,0.7,2.76,0.7c0.57,0,1.13-0.08,1.69-0.25c0.06-0.02,0.11-0.04,0.17-0.06c0.52,0.99,4.94,9.25,12.67,17.91
			c7.59,8.5,20.04,19.16,36.18,21.63c0.3,0.05,0.6,0.08,0.9,0.12c2.92,50.69-15.89,97.9-32.61,133.38l-0.04,0.09
			c-0.56,1.69-1.3,3.35-2,4.95c-0.72,1.61-1.45,3.28-2.03,5.02l-3.5,6.16l-0.04,0.08c-11.92,28.37-26.97,54.83-41.51,80.42
			c-2.5,4.4-5.01,8.81-7.5,13.21c-0.21,0.37-0.08,0.84,0.29,1.05c0.12,0.07,0.25,0.1,0.38,0.1c0.08,0,0.15-0.02,0.23-0.04
			c0.07,0.09,0.16,0.18,0.28,0.23c0.11,0.05,0.22,0.08,0.34,0.08c0.28,0,0.56-0.16,0.7-0.43c22.58-46.38,62.88-78.78,101.86-110.12
			c6.51-5.23,13.23-10.64,19.73-16c3.28,4.49,7.43,8.74,12.61,12.88c14.55,11.65,26.2,16.61,43.02,18.31l0.04-0.35
			c0.03,0.46,0.09,0.93,0.21,1.39c0.48,1.94,1.68,3.57,3.39,4.61c1.21,0.73,2.53,1.08,3.85,1.08c2.53,0,5-1.28,6.4-3.6
			C195.56,541.58,194.43,536.98,190.91,534.85"/>
	</g>
	<g>
		<g>
			<path class="st0" d="M101.85,145.08c-2.66,3.81-1.53,9.21,2.51,12.03c4.05,2.82,9.5,2.01,12.16-1.8
				c2.66-3.81,1.53-9.21-2.51-12.03C109.96,140.46,104.51,141.27,101.85,145.08 M117.7,156.13c-3.09,4.43-9.42,5.37-14.12,2.09
				c-4.7-3.27-6-9.54-2.92-13.97c3.09-4.43,9.42-5.37,14.12-2.09C119.48,145.44,120.78,151.7,117.7,156.13 M197.89,64.4
				c-1.86,2.66-1.07,6.44,1.75,8.41s6.64,1.4,8.5-1.26c1.86-2.66,1.07-6.44-1.75-8.41S199.75,61.74,197.89,64.4 M209.32,72.37
				c-2.29,3.28-6.98,3.97-10.45,1.55s-4.45-7.07-2.16-10.35c2.29-3.28,6.98-3.97,10.45-1.55C210.64,64.45,211.61,69.09,209.32,72.37
				 M107.63,266.37c-2.66,3.81-1.53,9.21,2.51,12.03s9.5,2.01,12.16-1.8c2.66-3.81,1.53-9.21-2.51-12.03
				S110.29,262.55,107.63,266.37 M123.48,277.42c-3.09,4.43-9.42,5.37-14.12,2.09c-4.7-3.27-6-9.54-2.92-13.97
				c3.09-4.43,9.42-5.36,14.11-2.09C125.26,266.72,126.57,272.99,123.48,277.42 M203.68,185.69c-1.86,2.66-1.07,6.44,1.75,8.41
				s6.64,1.4,8.5-1.26c1.86-2.66,1.07-6.44-1.75-8.41C209.35,182.46,205.53,183.03,203.68,185.69 M215.11,193.66
				c-2.29,3.28-6.98,3.97-10.45,1.55c-3.48-2.43-4.45-7.07-2.16-10.35c2.29-3.28,6.98-3.97,10.45-1.55
				C216.43,185.74,217.4,190.38,215.11,193.66"/>
		</g>
		<g>
			<path class="st1" d="M122.12,237.19c3.19,2.23,4.08,6.46,1.98,9.47c-2.1,3.01-6.38,3.64-9.57,1.42s-4.08-6.46-1.98-9.47
				S118.93,234.96,122.12,237.19"/>
		</g>
		<g>
			<path class="st2" d="M166.09,174.69c5.91,4.12,7.55,11.99,3.67,17.56c-3.89,5.58-11.84,6.75-17.75,2.63
				c-5.91-4.12-7.55-11.99-3.67-17.56C152.23,171.74,160.18,170.56,166.09,174.69"/>
		</g>
		<g>
			<path class="st3" d="M228.13,134.98c2.9,2.02,3.71,5.88,1.8,8.62c-1.91,2.74-5.81,3.32-8.71,1.29s-3.71-5.88-1.8-8.62
				C221.33,133.53,225.23,132.96,228.13,134.98"/>
		</g>
		<g>
			<path class="st3" d="M158.81,109.25c3.19,2.23,4.08,6.46,1.98,9.47c-2.1,3.01-6.38,3.64-9.57,1.42
				c-3.19-2.23-4.08-6.46-1.98-9.47C151.33,107.65,155.62,107.02,158.81,109.25"/>
		</g>
		<g>
			<path class="st3" d="M197.08,8.24c-1.37,1.96-0.79,4.72,1.29,6.17c2.07,1.45,4.87,1.03,6.24-0.92c1.36-1.95,0.79-4.72-1.29-6.17
				C201.24,5.87,198.44,6.28,197.08,8.24 M205,13.76c-1.51,2.16-4.6,2.62-6.89,1.02s-2.93-4.66-1.42-6.82
				c1.51-2.16,4.6-2.62,6.89-1.02C205.86,8.54,206.5,11.6,205,13.76"/>
		</g>
	</g>
	<g>
		<path class="st0" d="M132.22,339.83c0.83,2.76-0.74,5.67-3.5,6.5c-2.76,0.83-5.67-0.74-6.5-3.5c-0.83-2.76,0.74-5.67,3.5-6.5
			C128.48,335.51,131.39,337.07,132.22,339.83"/>
	</g>
	<g>
		<path class="st0" d="M127.23,336.63c-0.45,0-0.91,0.07-1.36,0.2c-2.48,0.75-3.9,3.37-3.15,5.86c0.36,1.21,1.17,2.19,2.28,2.79
			c1.11,0.6,2.38,0.73,3.58,0.36c1.21-0.36,2.19-1.17,2.79-2.28s0.72-2.38,0.36-3.58c-0.36-1.21-1.17-2.19-2.28-2.79
			C128.76,336.82,128,336.63,127.23,336.63 M127.22,347.07c-0.94,0-1.86-0.23-2.71-0.69c-1.35-0.73-2.33-1.93-2.78-3.4
			c-0.91-3.03,0.81-6.23,3.84-7.14c1.47-0.44,3.02-0.28,4.37,0.44c1.35,0.73,2.33,1.93,2.78,3.4c0.44,1.47,0.28,3.02-0.44,4.36
			c-0.73,1.35-1.93,2.33-3.4,2.78C128.33,346.99,127.77,347.07,127.22,347.07"/>
	</g>
	<g>
		<path class="st4" d="M122.71,441.24c0.72,2.39-0.64,4.9-3.02,5.63c-2.39,0.72-4.9-0.64-5.63-3.02c-0.72-2.39,0.64-4.9,3.02-5.63
			C119.47,437.5,121.99,438.86,122.71,441.24"/>
	</g>
	<g>
		<path class="st5" d="M118.39,438.47c-0.39,0-0.79,0.06-1.17,0.18c-2.15,0.64-3.37,2.92-2.72,5.07c0.31,1.04,1.01,1.9,1.97,2.41
			c0.96,0.52,2.06,0.62,3.1,0.31c1.04-0.31,1.9-1.01,2.41-1.97s0.62-2.06,0.31-3.1c-0.31-1.05-1.01-1.9-1.97-2.41
			C119.71,438.63,119.05,438.47,118.39,438.47 M118.38,447.5c-0.81,0-1.61-0.2-2.34-0.59c-1.17-0.63-2.02-1.67-2.4-2.94
			c-0.79-2.62,0.71-5.39,3.32-6.18c1.27-0.38,2.61-0.25,3.78,0.38c1.17,0.63,2.02,1.67,2.4,2.94c0.38,1.27,0.25,2.61-0.38,3.78
			c-0.63,1.17-1.67,2.02-2.94,2.4C119.34,447.43,118.86,447.5,118.38,447.5"/>
	</g>
	<g>
		<path class="st6" d="M59.48,336.8c0.72,2.39-0.64,4.9-3.02,5.63c-2.39,0.72-4.9-0.63-5.63-3.02c-0.72-2.39,0.64-4.9,3.02-5.63
			C56.24,333.06,58.76,334.42,59.48,336.8"/>
	</g>
	<g>
		<path class="st6" d="M130.77,340.86c0.72,2.39-0.64,4.9-3.02,5.63c-2.39,0.72-4.9-0.63-5.63-3.02c-0.72-2.39,0.64-4.9,3.02-5.63
			C127.53,337.12,130.06,338.47,130.77,340.86"/>
	</g>
	<g class="st7">
		<path class="st8" d="M172.08,488.93c0.54,1.79-0.48,3.68-2.27,4.22c-1.79,0.54-3.68-0.48-4.22-2.27
			c-0.54-1.79,0.48-3.68,2.27-4.22C169.66,486.12,171.54,487.14,172.08,488.93"/>
	</g>
	<g>
		<path class="st9" d="M190.9,538.66c0.83,2.76-0.74,5.67-3.5,6.5s-5.67-0.74-6.5-3.5c-0.83-2.76,0.74-5.67,3.5-6.5
			C187.16,534.33,190.07,535.89,190.9,538.66"/>
	</g>
	<g>
		<path class="st9" d="M185.91,535.45c-0.45,0-0.91,0.07-1.36,0.2c-2.48,0.75-3.9,3.37-3.15,5.86c0.36,1.21,1.17,2.19,2.28,2.79
			c1.11,0.6,2.38,0.73,3.58,0.36c1.21-0.36,2.19-1.17,2.79-2.28c0.59-1.11,0.72-2.38,0.36-3.58c-0.36-1.21-1.17-2.19-2.28-2.79
			C187.43,535.64,186.68,535.45,185.91,535.45 M185.89,545.89c-0.94,0-1.86-0.23-2.71-0.69c-1.35-0.73-2.33-1.93-2.78-3.4
			c-0.91-3.03,0.81-6.23,3.84-7.14c1.47-0.44,3.02-0.28,4.37,0.44c1.35,0.73,2.33,1.93,2.78,3.4s0.28,3.02-0.44,4.37
			c-0.73,1.35-1.93,2.33-3.4,2.78C187.01,545.81,186.45,545.89,185.89,545.89"/>
	</g>
</g>
</svg>
